<?xml version="1.0" standalone="no"?><!DOCTYPE svg PUBLIC "-//W3C//DTD SVG 1.1//EN" "http://www.w3.org/Graphics/SVG/1.1/DTD/svg11.dtd"><svg t="1783521955574" class="icon" viewBox="0 0 1024 1024" version="1.1" xmlns="http://www.w3.org/2000/svg" p-id="41392" xmlns:xlink="http://www.w3.org/1999/xlink" width="48" height="48"><path d="M0.01112 1023.49856V0.00012h1023.37244v44.558976c0 318.136826-0.29 636.275652 0.627 954.409478 0.064 22.156988-6.098997 25.072986-26.207986 25.029986-332.533818-0.704-665.069636-0.5-997.791454-0.5z" fill="#FFFFFF" p-id="41393"></path><path d="M1023.67256 511.89984c0 164.43791-0.19 328.87682 0.337 493.31273 0.045 14.167992-1.494999 18.82099-17.84699 18.78699-329.80782-0.676-659.617639-0.635-989.426459-0.08-14.713992 0.025-16.743991-3.642998-16.724991-17.29199 0.458-329.72682 0.451-659.454639 0.021-989.18146C0.01412 4.080118 1.592119-0.02588 16.600111 0.00012c330.660819 0.58 661.322638 0.545 991.983457 0.075 13.403993-0.019 15.400992 3.787998 15.369992 15.955991-0.418 165.28891-0.281 330.578819-0.281 495.868729z" fill="#FEFEFE" p-id="41394"></path><path d="M905.516625 256.64598c9.252995 7.072996 5.653997 17.255991 5.661997 26.108985 0.203 209.586885 0.231 419.174771 0.09 628.761657-0.038 56.345969-30.332983 86.486953-86.841953 86.518952-205.377888 0.117-410.756775 0.114-616.134663-0.002-54.02897-0.031-85.092953-31.475983-85.101953-85.731953-0.044-269.225853-0.053-538.451706 0.012-807.677558 0.012-50.539972 27.909985-80.626956 75.916958-84.242954 119.942934-9.036995 240.033869-2.399999 360.044803-3.674998 38.917979-0.413 78.332957-5.758997 116.922936 4.710997 6.875996 10.496994 7.263996 22.322988 7.270996 34.314982 0.023 35.649981-0.675 71.312961 0.213 106.946941 1.629999 65.356964 27.652985 90.357951 92.36495 91.15695 43.197976 0.532 86.493953-2.858998 129.580929 2.809999z" fill="#C1CCD2" p-id="41395"></path><path d="M905.516625 256.64598c-14.861992 9.744995-31.373983 3.780998-47.034974 4.349997-29.751984 1.079999-59.571967 0.325-89.362952 0.31-62.076966-0.031-92.526949-29.565984-93.231949-91.83295-0.558-49.346973 0.086-98.707946 0.198-148.059919 41.272977 34.361981 74.583959 76.544958 112.329939 114.380938 39.611978 39.707978 78.113957 80.520956 117.101936 120.851934z" fill="#99A8B5" p-id="41396"></path><path d="M337.944935 551.006819c-0.046-64.536965 26.252986-100.071945 84.098954-117.418936 19.02399-5.704997 35.68898-0.519 51.888972 5.781997 24.197987 9.411995 46.696974 10.405994 70.955961-0.112 36.79198-15.951991 71.276961-9.767995 102.358944 15.685991 11.817994 9.678995 14.883992 17.080991 1.683999 30.281984-45.388975 45.393975-40.237978 94.179948 12.251993 132.848927 6.887996 5.074997 14.447992 8.803995 8.422996 19.891989-12.564993 23.124987-23.459987 46.980974-40.981978 67.341963-20.094989 23.351987-44.679976 27.470985-71.519961 18.39599-28.702984-9.704995-56.210969-9.875995-84.794953-0.271-27.185985 9.134995-50.942972 4.338998-71.693961-18.03599-38.837979-41.873977-62.630966-97.989946-62.670966-154.390915z" fill="#FEFEFE" p-id="41397"></path><path d="M506.721843 410.004896c0.14-30.457983 40.629978-71.308961 69.711962-71.722961 10.845994-0.154 12.431993 5.842997 12.181993 14.544992-0.817 28.443984-34.791981 67.133963-63.309965 71.710961-11.903993 1.910999-20.580989-0.383-18.58399-14.532992z" fill="#FDFEFE" p-id="41398"></path></svg>