<?xml version="1.0" standalone="no"?><!DOCTYPE svg PUBLIC "-//W3C//DTD SVG 1.1//EN" "http://www.w3.org/Graphics/SVG/1.1/DTD/svg11.dtd"><svg t="1783520462731" class="icon" viewBox="0 0 1024 1024" version="1.1" xmlns="http://www.w3.org/2000/svg" p-id="21032" xmlns:xlink="http://www.w3.org/1999/xlink" width="48" height="48"><path d="M813.4144 153.856H204.9536c-59.5968 0-108.0832 48.4864-108.0832 108.0832v494.08c0 59.5968 48.4864 108.0832 108.0832 108.0832h608.4608c59.5968 0 108.0832-48.4864 108.0832-108.0832v-494.08c0-59.5968-48.4864-108.0832-108.0832-108.0832z m46.6432 602.1632c0 25.7024-20.9408 46.6432-46.6432 46.6432H204.9536c-25.7024 0-46.6432-20.9408-46.6432-46.6432v-158.0544c1.28-0.9216 2.5088-1.8432 3.6352-2.9696l172.0832-171.4688c0.1536-0.1536 0.5632-0.512 1.28-0.4608 0.768 0.0512 1.0752 0.4608 1.2288 0.6656l175.0016 222.8736c12.3904 15.7696 30.9248 24.1152 49.7664 24.1152 12.288 0 24.6784-3.5328 35.4816-10.9056l127.5392-86.9888c0.512-0.3584 1.1776-0.4096 1.6896-0.1024l133.9904 67.328v115.968z m0-184.832l-106.4448-53.4528c-20.48-10.2912-44.9536-8.6528-63.8976 4.2496l-127.5392 86.9888c-0.7168 0.512-1.7408 0.3584-2.2528-0.3584L384.8704 385.7408a63.0784 63.0784 0 0 0-45.824-24.0128c-17.9712-1.0752-35.6352 5.5808-48.384 18.2784L158.3104 511.8976V261.9392c0-25.7024 20.9408-46.6432 46.6432-46.6432h608.4608c25.7024 0 46.6432 20.9408 46.6432 46.6432v309.248z" fill="#FF6C39" p-id="21033"></path><path d="M696.832 277.504c-45.056 0-81.664 36.6592-81.664 81.664S651.776 440.832 696.832 440.832s81.664-36.6592 81.664-81.664S741.888 277.504 696.832 277.504z m0 101.888c-11.1616 0-20.224-9.0624-20.224-20.224s9.0624-20.224 20.224-20.224 20.224 9.0624 20.224 20.224-9.0624 20.224-20.224 20.224z" fill="#FF6C39" p-id="21034"></path></svg>