<?xml version="1.0" standalone="no"?><!DOCTYPE svg PUBLIC "-//W3C//DTD SVG 1.1//EN" "http://www.w3.org/Graphics/SVG/1.1/DTD/svg11.dtd"><svg t="1783521333386" class="icon" viewBox="0 0 1024 1024" version="1.1" xmlns="http://www.w3.org/2000/svg" p-id="12751" xmlns:xlink="http://www.w3.org/1999/xlink" width="48" height="48"><path d="M533.987556 352V135.992889H231.992889V888.035556h560.014222V394.012444H576a42.012444 42.012444 0 0 1-42.012444-42.012444z m72.305777 122.026667h34.702223c6.599111 0 12.003556 5.376 12.003555 11.946666v272.014223c0 6.627556-5.404444 12.003556-12.003555 12.003555h-27.192889a12.032 12.032 0 0 1-12.003556-12.003555V581.688889l-66.787555 150.613333a12.231111 12.231111 0 0 1-11.008 7.111111h-24.092445a12.003556 12.003556 0 0 1-11.008-7.111111l-66.787555-150.186666v175.872c0 6.627556-5.404444 12.003556-12.003556 12.003555h-27.107556a12.032 12.032 0 0 1-12.003555-12.003555v-271.985778c0-6.599111 5.404444-12.003556 12.003555-12.003556h34.986667c4.835556 0 9.102222 2.787556 11.008 7.196445l83.2 191.004444 83.086222-191.004444a11.946667 11.946667 0 0 1 11.008-7.196445z" fill="#E6F1F0" p-id="12752"></path><path d="M854.584889 288.597333L639.431111 73.386667c-6.001778-5.973333-14.108444-9.386667-22.613333-9.386667H192c-17.692444 0-32 14.307556-32 32v832c0 17.692444 14.307556 32 32 32h640c17.692444 0 32-14.307556 32-32v-616.675556c0-8.533333-3.413333-16.725333-9.386667-22.727111z m-252.586667-150.784l188.188445 188.188445h-188.188445V137.813333z m190.008889 750.193778H231.992889V135.964444h301.994667v216.007112a42.012444 42.012444 0 0 0 42.012444 42.012444h216.007111v493.994667z" fill="#047466" p-id="12753"></path><path d="M428.999111 481.194667a11.918222 11.918222 0 0 0-11.008-7.196445h-34.986667a12.032 12.032 0 0 0-12.003555 12.003556v271.985778c0 6.627556 5.404444 12.003556 12.003555 12.003555h27.107556c6.599111 0 11.975111-5.404444 11.975111-12.003555v-175.872l66.816 150.186666a12.003556 12.003556 0 0 0 11.008 7.111111h24.092445a12.231111 12.231111 0 0 0 11.008-7.111111l66.787555-150.613333v176.298667c0 6.627556 5.404444 12.003556 12.003556 12.003555h27.192889c6.599111 0 12.003556-5.404444 12.003555-12.003555v-271.985778a12.032 12.032 0 0 0-12.003555-12.003556h-34.702223a11.946667 11.946667 0 0 0-11.008 7.196445l-83.086222 191.004444-83.2-191.004444z" fill="#047466" p-id="12754"></path></svg>