<?xml version="1.0" standalone="no"?><!DOCTYPE svg PUBLIC "-//W3C//DTD SVG 1.1//EN" "http://www.w3.org/Graphics/SVG/1.1/DTD/svg11.dtd"><svg t="1783520423901" class="icon" viewBox="0 0 1024 1024" version="1.1" xmlns="http://www.w3.org/2000/svg" p-id="16482" xmlns:xlink="http://www.w3.org/1999/xlink" width="48" height="48"><path d="M919.552 157.76h-326.4V64h-57.6L64 147.584V876.8L529.792 960h63.296v-104.192h305.472a89.6 89.6 0 0 0 51.584-10.112 125.12 125.12 0 0 0 9.856-63.04V198.4a36.928 36.928 0 0 0-40.448-40.64zM362.56 546.56a147.2 147.2 0 0 1-74.56 9.6V678.4l-60.8-5.248V339.264c55.296 2.688 122.24-22.4 168.064 20.032a129.344 129.344 0 0 1-32.704 187.264z m548.928 259.84H593.088v-65.216h244.288V699.52H593.088v-52.096h244.288v-41.664H593.216v-61.248a140.032 140.032 0 0 0 122.24-12.288 143.296 143.296 0 0 0 62.72-113.792H644.032V282.368l-51.2 10.496V206.912h318.4V806.4zM664.384 260.608a145.28 145.28 0 0 1 134.08 136.768H664.384V260.608zM288 395.648a60.992 60.992 0 0 1 58.432 14.592 77.184 77.184 0 0 1 1.344 68.352 65.728 65.728 0 0 1-58.112 21.888A1218.432 1218.432 0 0 1 288 395.648z" fill="#EA7130" p-id="16483"></path></svg>