<?xml version="1.0" standalone="no"?><!DOCTYPE svg PUBLIC "-//W3C//DTD SVG 1.1//EN" "http://www.w3.org/Graphics/SVG/1.1/DTD/svg11.dtd"><svg t="1783521694036" class="icon" viewBox="0 0 1024 1024" version="1.1" xmlns="http://www.w3.org/2000/svg" p-id="21084" xmlns:xlink="http://www.w3.org/1999/xlink" width="48" height="48"><path d="M554.672 0v213.328a42.656 42.656 0 0 0 37.664 42.368l4.992 0.304H896v682.672A85.328 85.328 0 0 1 810.672 1024H213.328A85.328 85.328 0 0 1 128 938.672V85.328A85.328 85.328 0 0 1 213.328 0h341.344zM263.344 627.408H227.84l55.04 106.112v77.152h30.208V733.76l55.248-106.368h-34.848l-34.816 72.544-35.376-72.544h0.048z m176.128 0h-32.128l-58.496 183.264h32.256l12.368-41.648h60l13.12 41.648h32.992l-60.112-183.264z m121.12 0H515.2v183.264h28.24v-144.224l29.664 144.224h29.216l29.872-144.224v144.224h28.16V627.408h-45.52l-27.008 125.024-27.232-125.024z m160.992 1.504h-30.256v181.76h105.76v-30.896h-75.52v-150.88z m-298.496 41.248l20.64 68.016h-40.992l20.352-68z" fill="#36B3B3" p-id="21085"></path><path d="M554.672 0L896 256H597.328a42.672 42.672 0 0 1-42.656-42.672V0z" fill="#D4F5F5" p-id="21086"></path></svg>