<?xml version="1.0" standalone="no"?><!DOCTYPE svg PUBLIC "-//W3C//DTD SVG 1.1//EN" "http://www.w3.org/Graphics/SVG/1.1/DTD/svg11.dtd"><svg t="1783654707579" class="icon" viewBox="0 0 1024 1024" version="1.1" xmlns="http://www.w3.org/2000/svg" p-id="25288" xmlns:xlink="http://www.w3.org/1999/xlink" width="48" height="48"><path d="M689.0496 312.2176c6.144 0 11.502933 2.2528 16.008533 6.724267a21.845333 21.845333 0 0 1 6.7584 16.042666 21.9136 21.9136 0 0 1-6.7584 16.145067l-32.1536 32.1536a21.674667 21.674667 0 0 1-16.008533 6.587733 22.1184 22.1184 0 0 1-22.7328-22.766933c0-6.280533 2.1504-11.605333 6.5536-15.9744l32.1536-32.187733a22.2208 22.2208 0 0 1 16.1792-6.724267zM716.8 489.233067h45.499733c6.280533 0 11.639467 2.218667 16.0768 6.690133A21.845333 21.845333 0 0 1 785.066667 512a21.742933 21.742933 0 0 1-6.690134 16.0768 21.777067 21.777067 0 0 1-16.042666 6.690133H716.8a21.879467 21.879467 0 0 1-16.110933-6.690133 21.845333 21.845333 0 0 1-6.656-16.0768c0-6.314667 2.218667-11.605333 6.656-16.0768a21.879467 21.879467 0 0 1 16.110933-6.690133zM512 238.933333a22.186667 22.186667 0 0 1 16.0768 6.690134c4.437333 4.437333 6.690133 9.8304 6.690133 16.042666V307.2a21.845333 21.845333 0 0 1-6.656 16.0768 21.947733 21.947733 0 0 1-16.110933 6.7584 21.947733 21.947733 0 0 1-16.110933-6.7584 21.845333 21.845333 0 0 1-6.656-16.0768V261.700267c0-6.2464 2.218667-11.605333 6.656-16.0768A22.186667 22.186667 0 0 1 512 238.933333zM335.121067 312.2176c6.144 0 11.502933 2.2528 16.008533 6.724267l32.1536 32.187733a21.777067 21.777067 0 0 1 6.7584 16.008533 21.777067 21.777067 0 0 1-6.656 16.042667 21.777067 21.777067 0 0 1-16.110933 6.690133 22.1184 22.1184 0 0 1-16.145067-6.485333l-32.187733-32.187733a22.016 22.016 0 0 1-6.587734-16.247467 21.845333 21.845333 0 0 1 6.690134-16.042667 22.084267 22.084267 0 0 1 16.110933-6.690133h-0.034133z m321.774933 321.7408c6.144 0 11.502933 2.218667 16.008533 6.7584l32.1536 32.1536a22.016 22.016 0 0 1 6.7584 16.1792 21.845333 21.845333 0 0 1-6.7584 16.008533 21.674667 21.674667 0 0 1-16.008533 6.724267 21.947733 21.947733 0 0 1-16.1792-6.724267l-32.1536-32.187733a21.640533 21.640533 0 0 1-6.5536-15.9744c0-6.314667 2.184533-11.707733 6.656-16.1792a21.9136 21.9136 0 0 1 16.0768-6.7584zM512 420.9664c-25.122133 0-46.557867 8.874667-64.341333 26.7264A87.620267 87.620267 0 0 0 420.9664 512c0 25.122133 8.874667 46.557867 26.692267 64.4096 17.783467 17.749333 39.2192 26.624 64.341333 26.624s46.557867-8.874667 64.375467-26.624c17.749333-17.8176 26.624-39.287467 26.624-64.4096s-8.874667-46.557867-26.624-64.3072A87.620267 87.620267 0 0 0 512 420.9664z m-250.299733 68.266667H307.2a21.845333 21.845333 0 0 1 16.110933 6.690133c4.437333 4.471467 6.656 9.796267 6.656 16.0768a21.845333 21.845333 0 0 1-6.656 16.0768 21.845333 21.845333 0 0 1-16.110933 6.690133H261.700267a21.777067 21.777067 0 0 1-16.0768-6.690133A21.742933 21.742933 0 0 1 238.933333 512a21.845333 21.845333 0 0 1 6.690134-16.0768 21.8112 21.8112 0 0 1 16.042666-6.690133z m250.299733 204.8a21.845333 21.845333 0 0 1 16.110933 6.690133c4.437333 4.471467 6.656 9.796267 6.656 16.0768v45.499733a21.845333 21.845333 0 0 1-6.656 16.0768A21.845333 21.845333 0 0 1 512 785.066667a21.879467 21.879467 0 0 1-16.110933-6.690134 21.845333 21.845333 0 0 1-6.656-16.042666V716.8c0-6.314667 2.218667-11.605333 6.656-16.0768a21.845333 21.845333 0 0 1 16.110933-6.690133z m-144.6912-60.074667c6.2464 0 11.605333 2.218667 16.0768 6.7584 4.437333 4.471467 6.690133 9.898667 6.690133 16.145067a21.742933 21.742933 0 0 1-6.7584 16.042666l-32.187733 32.1536a21.674667 21.674667 0 0 1-15.9744 6.724267 21.981867 21.981867 0 0 1-16.110933-6.587733 22.016 22.016 0 0 1-6.690134-16.145067c0-6.382933 2.184533-11.776 6.587734-16.1792l32.187733-32.1536a21.845333 21.845333 0 0 1 16.145067-6.7584h0.034133zM512 375.466667c24.7808 0 47.616 6.144 68.539733 18.261333 20.923733 12.288 37.4784 28.842667 49.664 49.7664 12.219733 20.855467 18.3296 43.690667 18.3296 68.5056 0 24.814933-6.109867 47.650133-18.3296 68.573867a137.1136 137.1136 0 0 1-49.664 49.664A133.3248 133.3248 0 0 1 512 648.533333a133.4272 133.4272 0 0 1-68.539733-18.261333 137.284267 137.284267 0 0 1-49.664-49.698133A133.597867 133.597867 0 0 1 375.466667 512c0-24.814933 6.144-47.650133 18.3296-68.5056a136.2944 136.2944 0 0 1 49.664-49.732267A134.212267 134.212267 0 0 1 512 375.466667z" fill="#2c2c2c" p-id="25289"></path></svg>