<?xml version="1.0" standalone="no"?><!DOCTYPE svg PUBLIC "-//W3C//DTD SVG 1.1//EN" "http://www.w3.org/Graphics/SVG/1.1/DTD/svg11.dtd"><svg t="1783651820843" class="icon" viewBox="0 0 1024 1024" version="1.1" xmlns="http://www.w3.org/2000/svg" p-id="16663" xmlns:xlink="http://www.w3.org/1999/xlink" width="48" height="48"><path d="M238.933333 981.333333H98.133333c-46.933333 0-85.333333-38.4-85.333333-85.333333V128c0-46.933333 38.4-85.333333 85.333333-85.333333h140.8c46.933333 0 85.333333 38.4 85.333334 85.333333v768c0 46.933333-38.4 85.333333-85.333334 85.333333zM98.133333 106.666667c-12.8 0-21.333333 8.533333-21.333333 21.333333v768c0 12.8 8.533333 21.333333 21.333333 21.333333h140.8c12.8 0 21.333333-8.533333 21.333334-21.333333V128c0-12.8-8.533333-21.333333-21.333334-21.333333H98.133333zM580.266667 981.333333h-140.8c-46.933333 0-85.333333-38.4-85.333334-85.333333V128c0-46.933333 38.4-85.333333 85.333334-85.333333h140.8c46.933333 0 85.333333 38.4 85.333333 85.333333v768c0 46.933333-38.4 85.333333-85.333333 85.333333zM439.466667 106.666667c-12.8 0-21.333333 8.533333-21.333334 21.333333v768c0 12.8 8.533333 21.333333 21.333334 21.333333h140.8c12.8 0 21.333333-8.533333 21.333333-21.333333V128c0-12.8-8.533333-21.333333-21.333333-21.333333h-140.8zM925.866667 981.333333h-140.8c-46.933333 0-85.333333-38.4-85.333334-85.333333V128c0-46.933333 38.4-85.333333 85.333334-85.333333h140.8c46.933333 0 85.333333 38.4 85.333333 85.333333v768c-4.266667 46.933333-42.666667 85.333333-85.333333 85.333333zM780.8 106.666667c-12.8 0-21.333333 8.533333-21.333333 21.333333v768c0 12.8 8.533333 21.333333 21.333333 21.333333h140.8c12.8 0 21.333333-8.533333 21.333333-21.333333V128c0-12.8-8.533333-21.333333-21.333333-21.333333h-140.8z" p-id="16664" fill="#515151"></path></svg>