<?xml version="1.0" standalone="no"?><!DOCTYPE svg PUBLIC "-//W3C//DTD SVG 1.1//EN" "http://www.w3.org/Graphics/SVG/1.1/DTD/svg11.dtd"><svg t="1783681966140" class="icon" viewBox="0 0 1024 1024" version="1.1" xmlns="http://www.w3.org/2000/svg" p-id="24657" xmlns:xlink="http://www.w3.org/1999/xlink" width="48" height="48"><path d="M832 0 192 0C156.656 0 128 28.64 128 64l0 896c0 35.344 28.656 64 64 64l640 0c35.344 0 64-28.656 64-64L896 64C896 28.64 867.344 0 832 0z" p-id="24658"></path><path d="M512 448m-320 0a20 20 0 1 0 640 0 20 20 0 1 0-640 0Z" p-id="24659"></path><path d="M512 448m-64 0a4 4 0 1 0 128 0 4 4 0 1 0-128 0Z" p-id="24660"></path><path d="M224 64C206.336 64 192 78.32 192 96c0 17.664 14.336 32 32 32s32-14.336 32-32C256 78.32 241.664 64 224 64zM800 128c17.664 0 32-14.336 32-32 0-17.68-14.336-32-32-32s-32 14.32-32 32C768 113.664 782.336 128 800 128zM800 896c-17.664 0-32 14.32-32 32 0 17.664 14.336 32 32 32s32-14.336 32-32C832 910.32 817.664 896 800 896z" p-id="24661"></path><path d="M480 544.192c-10.464 0-19.328 5.344-25.152 13.056L224 792.592c0 0-32 15.872-32 71.664 0 52.768 42.992 95.552 96 95.552 44.72 0 75.968-32.576 92.624-71.76l124.528-293.216C509.168 589.504 512 583.2 512 576.048 512 558.448 497.664 544.192 480 544.192z" p-id="24662"></path></svg>